<?xml version="1.0" encoding="UTF-8" standalone="no"?><!DOCTYPE svg PUBLIC "-//W3C//DTD SVG 1.1//EN" "http://www.w3.org/Graphics/SVG/1.1/DTD/svg11.dtd"><svg width="100%" height="100%" viewBox="0 0 47 29" version="1.1" xmlns="http://www.w3.org/2000/svg" xmlns:xlink="http://www.w3.org/1999/xlink" xml:space="preserve" xmlns:serif="http://www.serif.com/" style="fill-rule:evenodd;clip-rule:evenodd;stroke-linejoin:round;stroke-miterlimit:2;"><rect id="reviewsio-logo--minimised" x="0" y="0" width="47" height="29" style="fill:none;"/><g><path d="M29.153,21.894c0.423,0 0.737,0.313 0.737,0.737l0,0.313c0,0.424 -0.314,0.753 -0.737,0.753c-0.439,0 -0.753,-0.329 -0.753,-0.753l0,-0.313c0,-0.424 0.314,-0.737 0.753,-0.737Z" style="fill-rule:nonzero;"/><path d="M32.417,12.969c0,-0.393 0.314,-0.644 0.706,-0.644c0.408,0 0.722,0.251 0.722,0.644l0,0.203c0,0.377 -0.313,0.644 -0.722,0.644c-0.392,0 -0.706,-0.267 -0.706,-0.644l0,-0.203Zm0.11,3.074c0,-0.329 0.267,-0.612 0.596,-0.612c0.346,0 0.612,0.267 0.612,0.612l0,7.043c0,0.345 -0.251,0.611 -0.597,0.611c-0.345,0 -0.611,-0.267 -0.611,-0.611l0,-7.043Z" style="fill-rule:nonzero;"/><path d="M36.042,19.604l0,-0.031c0,-2.29 1.789,-4.235 4.235,-4.235c2.432,0 4.22,1.914 4.22,4.204l0,0.031c0,2.29 -1.804,4.235 -4.251,4.235c-2.432,0 -4.204,-1.914 -4.204,-4.204Zm7.216,0l0,-0.031c0,-1.741 -1.302,-3.169 -3.012,-3.169c-1.757,0 -2.965,1.428 -2.965,3.138l0,0.031c0,1.741 1.286,3.152 2.996,3.152c1.757,0 2.981,-1.411 2.981,-3.121Z" style="fill-rule:nonzero;"/></g><g><g><path d="M21.629,6.22c2.351,1.899 3.5,4.351 3.713,7.317c-0.178,5.727 -2.88,9.408 -7.521,10.986c-5.363,1.616 -8.76,0.309 -12.048,-3.042l-0.549,3.406c5.719,3.758 14.023,5.626 19.281,0.44c5.4,-5.326 5.469,-14.576 -0.962,-20.066l-1.914,0.959Z" style="fill:none;"/><clipPath id="_clip1"><path d="M21.629,6.22c2.351,1.899 3.5,4.351 3.713,7.317c-0.178,5.727 -2.88,9.408 -7.521,10.986c-5.363,1.616 -8.76,0.309 -12.048,-3.042l-0.549,3.406c5.719,3.758 14.023,5.626 19.281,0.44c5.4,-5.326 5.469,-14.576 -0.962,-20.066l-1.914,0.959Z"/></clipPath><g clip-path="url(#_clip1)"><path d="M20.789,3.484c-4.65,-4.846 -12.36,-5.005 -17.205,-0.355c-4.846,4.65 -5.005,12.359 -0.355,17.205l3.673,3.828c4.65,4.846 12.36,5.005 17.205,0.355c4.846,-4.65 5.005,-12.359 0.355,-17.205l-3.673,-3.828Z" style="fill:#feef7c;"/></g><path d="M4.241,22.63l1.471,-1.284c-3.357,-4.756 -3.497,-11.72 1.096,-15.553c3.405,-2.842 10.161,-4.315 15.566,0.444l0.837,-1.471c-4.419,-4.907 -11.093,-5.525 -15.371,-3.842c-10.5,4.131 -8.882,17.961 -3.599,21.706Z" style="fill:none;"/><clipPath id="_clip2"><path d="M4.241,22.63l1.471,-1.284c-3.357,-4.756 -3.497,-11.72 1.096,-15.553c3.405,-2.842 10.161,-4.315 15.566,0.444l0.837,-1.471c-4.419,-4.907 -11.093,-5.525 -15.371,-3.842c-10.5,4.131 -8.882,17.961 -3.599,21.706Z"/></clipPath><g clip-path="url(#_clip2)"><path d="M21.46,4.155c-4.65,-4.846 -12.359,-5.005 -17.205,-0.355c-4.846,4.65 -5.005,12.36 -0.355,17.205l3.673,3.829c4.65,4.845 12.36,5.004 17.206,0.354c4.846,-4.65 5.005,-12.359 0.355,-17.205l-3.674,-3.828Z" style="fill:#5cd3cb;"/></g></g><path d="M2,14.193c0,6.733 5.459,12.192 12.192,12.192c6.734,0 12.193,-5.459 12.193,-12.192c0,-6.734 -5.459,-12.193 -12.193,-12.193c-6.733,0 -12.192,5.459 -12.192,12.193Zm8.486,2.205c0.128,-0.405 -0.014,-0.847 -0.355,-1.102c-0.902,-0.674 -2.682,-2.003 -3.877,-2.895c-0.173,-0.129 -0.243,-0.354 -0.175,-0.559c0.068,-0.204 0.259,-0.342 0.474,-0.342l4.634,0c0.431,0 0.814,-0.276 0.949,-0.686c0.365,-1.103 1.091,-3.296 1.573,-4.749c0.067,-0.204 0.258,-0.342 0.474,-0.343c0.215,0 0.406,0.138 0.475,0.342c0.486,1.454 1.221,3.65 1.59,4.753c0.136,0.408 0.518,0.683 0.948,0.683c1.096,0 3.208,0 4.645,0c0.215,0 0.406,0.137 0.474,0.341c0.068,0.204 -0.001,0.429 -0.173,0.558c-1.192,0.898 -2.972,2.239 -3.873,2.917c-0.338,0.255 -0.479,0.696 -0.351,1.101c0.348,1.1 1.046,3.305 1.518,4.794c0.066,0.209 -0.011,0.436 -0.19,0.561c-0.178,0.125 -0.418,0.12 -0.591,-0.013c-1.198,-0.919 -2.947,-2.262 -3.863,-2.965c-0.36,-0.276 -0.861,-0.275 -1.22,0.002c-0.908,0.702 -2.633,2.036 -3.82,2.954c-0.173,0.134 -0.413,0.14 -0.592,0.015c-0.18,-0.126 -0.257,-0.353 -0.191,-0.561c0.472,-1.494 1.169,-3.703 1.517,-4.806Z" style="fill-rule:nonzero;"/></g></svg>