<?xml version="1.0" standalone="no"?>
<!DOCTYPE svg PUBLIC "-//W3C//DTD SVG 20010904//EN"
 "http://www.w3.org/TR/2001/REC-SVG-20010904/DTD/svg10.dtd">
<svg version="1.0" xmlns="http://www.w3.org/2000/svg"
 width="533.000000pt" height="400.000000pt" viewBox="0 0 533.000000 400.000000"
 preserveAspectRatio="xMidYMid meet">

<g transform="translate(0.000000,400.000000) scale(0.100000,-0.100000)"
fill="#1F58A0" stroke="none">
<path d="M0 2005 l0 -1995 2655 0 2655 0 0 1995 0 1995 -2655 0 -2655 0 0
-1995z m578 481 c16 -8 44 -27 62 -42 31 -27 34 -27 160 -25 143 3 184 -5 251
-48 60 -38 90 -97 90 -179 1 -106 -50 -183 -156 -236 -53 -26 -173 -52 -205
-43 -19 5 -20 -1 -20 -164 l0 -169 -36 0 c-62 0 -167 83 -225 179 -46 76 -80
244 -65 324 6 31 11 36 49 46 50 12 115 57 145 99 27 37 37 118 20 151 -16 31
-95 60 -165 61 -47 0 -58 -4 -93 -36 -21 -20 -50 -59 -64 -87 l-24 -51 -11 41
c-24 88 28 169 124 194 42 11 127 3 163 -15z m4082 -409 l265 -306 3 325 2
324 50 0 50 0 -2 -422 -3 -423 -25 -3 c-22 -2 -65 44 -310 327 l-285 329 -3
-324 -2 -324 -50 0 -50 0 0 419 0 420 28 3 c18 3 33 -3 47 -18 11 -12 139
-160 285 -327z m-3158 46 c3 -321 7 -343 61 -402 83 -90 289 -85 359 10 49 66
52 86 56 397 l4 292 44 0 44 0 0 -284 c0 -257 -2 -290 -20 -350 -44 -142 -135
-208 -295 -214 -156 -6 -255 48 -311 170 l-29 63 -3 308 -3 307 45 0 45 0 3
-297z m1360 280 c2 -10 2 -30 0 -45 l-4 -28 -174 0 -174 0 0 -125 0 -125 160
0 160 0 1 -25 c1 -14 2 -33 3 -42 1 -16 -14 -18 -161 -21 l-163 -2 0 -205 0
-205 -45 0 -45 0 0 420 0 420 219 0 c201 0 220 -1 223 -17z m720 0 c2 -10 2
-30 0 -45 l-4 -28 -174 0 -174 0 0 -125 0 -125 160 0 160 0 1 -25 c1 -14 2
-33 3 -42 1 -16 -14 -18 -161 -21 l-163 -2 0 -205 0 -205 -45 0 -45 0 0 420 0
420 219 0 c201 0 220 -1 223 -17z m368 -403 l0 -420 -45 0 -45 0 0 420 0 420
45 0 45 0 0 -420z m-3395 364 c-22 -8 -43 -21 -48 -29 -4 -8 -17 -19 -27 -25
-16 -8 -22 -6 -36 15 -27 42 -14 51 72 52 l79 1 -40 -14z m-275 -73 c0 -10 11
-34 24 -53 l23 -34 -28 -32 c-16 -18 -31 -32 -33 -32 -11 0 -17 67 -11 116 6
50 25 77 25 35z m-38 -65 c-2 -31 1 -62 8 -75 10 -19 8 -26 -7 -44 -18 -22
-18 -22 2 -5 17 14 23 15 45 3 14 -8 35 -14 48 -15 12 0 22 -4 22 -10 0 -15
-76 -31 -128 -28 l-47 3 -3 47 c-4 58 11 117 39 152 11 14 22 26 23 26 1 0 1
-24 -2 -54z m198 -14 c26 -21 20 -42 -11 -42 -45 0 -79 40 -46 53 22 10 35 7
57 -11z m-46 -63 c14 -17 26 -35 26 -40 0 -13 -83 -11 -117 2 l-28 11 35 29
c43 36 52 36 84 -2z"/>
<path d="M788 2333 l-28 -4 1 -192 c1 -106 4 -182 6 -171 3 18 13 22 62 27 56
5 128 33 165 66 32 28 49 73 48 130 0 63 -20 95 -73 122 -34 18 -129 29 -181
22z"/>
<path d="M560 1979 c-13 -5 -41 -7 -62 -4 -34 6 -38 4 -38 -14 0 -37 50 -175
78 -216 15 -21 52 -59 82 -84 l55 -44 3 173 c1 95 -2 178 -7 183 -14 14 -83
18 -111 6z"/>
</g>
</svg>
